# xmcd
#
# Track frame offsets: 
#        150
#        12785
#        27762
#        39799
#        58420
#        71425
#        81664
#        92785
#        101806
#        113759
#        129770
#        142906
#        153095
#        163180
#        176172
#        197680
#        205339
#
# Disc length: 2938 seconds
#
# Revision: 1
# Processed by: cddbd v1.5.2PL0 Copyright (c) Steve Scherf et al.
# Submitted via: ExactAudioCopyFreeDBPlugin 1.0
#
DISCID=e10b7811
DTITLE=Various Artist - The Very Best Of Country Classics - CD2
DYEAR=0
DGENRE=Country
TTITLE0=Johnny Cash - Ring Of Fire
TTITLE1=Willy Nelson - Face Of A Fighter
TTITLE2=Billy Jo Spears - Misty Blue
TTITLE3=John Denver - Tenderly Calling
TTITLE4=George Jones - The Old Rugged Cross
TTITLE5=Johnny Cash - If I Where A Carpenter
TTITLE6=Brenda Lee - Thats All You Gotta Do
TTITLE7=Dave Dudley - Keep On Trucking
TTITLE8=Kenny Rogers - Me And Bobby McGee
TTITLE9=Jerry Lee Lewis - Middle Aged Crazy
TTITLE10=Jack Greene - California Turn Around
TTITLE11=Don Gibson - Sea Of A Heartbreak
TTITLE12=Brenda Lee - Good Old Acapellla (Soul To Soul)
TTITLE13=Ernest Tubb - Do What You Do - Do Well
TTITLE14=John Denver - The Gift You Are
TTITLE15=Willie Nelson - If You've Got The Money
TTITLE16=Lynn Anderson - Desperado
EXTD=Eigentümer Familie Scharte
EXTT0=
EXTT1=
EXTT2=
EXTT3=
EXTT4=
EXTT5=
EXTT6=
EXTT7=
EXTT8=
EXTT9=
EXTT10=
EXTT11=
EXTT12=
EXTT13=
EXTT14=
EXTT15=
EXTT16=
PLAYORDER=
